<?xml version="1.0" encoding="utf-8"?>
<!-- Generator: Adobe Illustrator 27.9.0, SVG Export Plug-In . SVG Version: 6.00 Build 0)  -->
<svg version="1.1" id="Layer_1" xmlns="http://www.w3.org/2000/svg" xmlns:xlink="http://www.w3.org/1999/xlink" x="0px" y="0px"
	 viewBox="0 0 309.9 290.7" style="enable-background:new 0 0 309.9 290.7;" xml:space="preserve">
<style type="text/css">
	.st0{fill:#FFFFFF;}
	.st1{fill:#007642;}
</style>
<rect x="-1286.1" y="-107.4" class="st0" width="1090" height="1082.9"/>
<path class="st1" d="M301.6,184.7l-1-1.3c0,0,5.1-0.5,9.3-5.2c-6.1-1.7-10.6,0.6-10.6,0.6l0.1-1.6c-4.1-0.2-7,2-7,2l0-2.3
	c-5,0.4-7,1.8-7,1.8l0-2.7c-4.4,0.3-8.5,2.5-8.5,2.5l0.3-2.8c-7.6,1.7-9,3.6-9,3.6l0.5-2.8c-6.4,1.4-9.9,3.7-9.9,3.7l0.7-3.1
	c-6.3,1.4-9.7,4.1-9.7,4.1l0.4-3.2c-8.6,2.3-10,4.9-10,4.9l0.3-3.4c-7.4,1.8-9.7,5.2-9.7,5.2l-0.2-3.1c-6.9,2-10.2,5.5-10.2,5.5
	l-0.1-3.4c-2.8,1-4.8,2.3-6.2,3.5l-3.2-2c0,0,7.5-0.9,14.5-7l-4.2-2.3c0,0,5.8-0.2,12-6.7l-3.6-1.7c0,0,5.3-1.9,10.7-8.4l-3.3-1.6
	c0,0,4.7-0.9,10.2-7.9l-3.8-1.3c0,0,3.5-0.3,10-8.5l-3.6-1.1c0,0,4.5-2.4,9-8.5l-3.6-0.7c0,0,4.1-2.7,8.7-8.9l-3.3-0.8
	c0,0,2.7-0.6,8.1-7.9l-3.1-1c0,0,4.3-3.5,6.7-8l-2.9-1.2c0,0,2.4-1.5,5.2-6.7l-2.5-1.1c0,0,3.7-2.1,5.4-6.6l-1.8-0.6
	c0,0,4.7-3.8,5.7-11.1c-7,2.2-10,7.5-10,7.5l-0.9-1.7c-4.1,2.4-5.6,6.5-5.6,6.5l-1.5-2.3c-4.6,3.6-5.7,6.2-5.7,6.2L256,89
	c-4,3.1-6.7,8-6.7,8l-1.5-2.9c-6.4,6.5-6.5,9.3-6.5,9.3l-1.3-3.1c-5.4,5.5-7.3,10-7.3,10l-1.3-3.5c-5.3,5.5-6.9,10.3-6.9,10.3
	l-1.7-3.4c-6.9,7.8-6.7,11.2-6.7,11.2l-1.9-3.5c-6,6.5-6.1,11.4-6.1,11.4l-2.2-3c-5.5,6.4-6.5,12-6.5,12l-2.2-3.3
	c-5.4,7.1-4.6,12.9-4.6,12.9l-3-3.7c-4.9,7.9-4.5,15.4-4.5,15.4l-2.8-3.1c-4.9,6.5-4.6,14.7-4.6,14.7l-1.2-1.5
	c0.6-1.7,1.1-3.6,1.4-5.8l-5,1c0,0,6.5-7.2,7-16.8l-4.9,0.7c0,0,6-6.5,7.7-17.4l-5.5,1.1c0,0,5.1-4.6,5.7-15.2l-4.5,1.2
	c0,0,3.4-5.8,3.3-15.7l-4.2,1c0,0,3.6-4.4,3.2-14.9l-4.4,1.7c0,0,2.9-3,2.5-15.2l-4.1,1.8c0,0,2.2-5.6,1.6-14.5l-3.8,2.1
	c0,0,1.7-5.6,1-14.6l-3.6,1.8c0,0,2-2.6,1.3-13.3l-3.6,1.5c0,0,1.3-6.4,0-12.3l-3.6,1.1c0,0,1-3.2-0.4-10l-3.1,0.9
	c0,0,1.7-4.8-0.1-10.1l-2.1,0.8c0,0,1.3-7-3.3-14.4c-4.7,7.4-3.3,14.4-3.3,14.4l-2.1-0.8c-1.8,5.3-0.1,10.1-0.1,10.1l-3.1-0.9
	c-1.4,6.8-0.4,10-0.4,10l-3.6-1.1c-1.3,5.9,0,12.3,0,12.3l-3.6-1.5c-0.7,10.7,1.3,13.3,1.3,13.3l-3.6-1.8c-0.7,9.1,1,14.6,1,14.6
	l-3.8-2.1c-0.6,8.9,1.6,14.5,1.6,14.5l-4.1-1.8c-0.3,12.3,2.5,15.2,2.5,15.2l-4.4-1.7c-0.4,10.5,3.2,14.9,3.2,14.9l-4.2-1
	c-0.1,10,3.3,15.7,3.3,15.7l-4.5-1.2c0.6,10.5,5.7,15.2,5.7,15.2l-5.5-1.1c1.6,10.9,7.7,17.4,7.7,17.4l-4.9-0.7
	c0.5,9.5,7,16.8,7,16.8l-5-1c0.3,1.6,0.6,3,1,4.4l-1.1,1.3c0,0,0.2-8.2-4.6-14.7l-2.8,3.1c0,0,0.4-7.5-4.5-15.4l-3,3.7
	c0,0,0.7-5.8-4.6-12.9l-2.2,3.3c0,0-1-5.6-6.5-12l-2.2,3c0,0-0.1-4.8-6.1-11.4l-1.9,3.5c0,0,0.2-3.5-6.7-11.2l-1.7,3.4
	c0,0-1.7-4.8-6.9-10.3l-1.3,3.5c0,0-1.9-4.5-7.3-10l-1.3,3.1c0,0-0.1-2.8-6.5-9.3l-1.5,2.9c0,0-2.7-4.8-6.7-8l-1.7,2.7
	c0,0-1.1-2.6-5.7-6.2l-1.5,2.3c0,0-1.5-4-5.6-6.5l-0.9,1.7c0,0-3-5.3-10-7.5c1,7.3,5.7,11.1,5.7,11.1l-1.8,0.6
	c1.7,4.4,5.4,6.6,5.4,6.6l-2.5,1.1c2.8,5.1,5.2,6.7,5.2,6.7l-2.9,1.2c2.4,4.5,6.7,8,6.7,8l-3.1,1c5.4,7.4,8.1,7.9,8.1,7.9l-3.3,0.8
	c4.5,6.2,8.7,8.9,8.7,8.9l-3.6,0.7c4.5,6.1,9,8.5,9,8.5l-3.6,1.1c6.5,8.1,10,8.5,10,8.5l-3.8,1.3c5.5,7,10.2,7.9,10.2,7.9l-3.3,1.6
	c5.4,6.5,10.7,8.4,10.7,8.4l-3.6,1.7c6.1,6.5,12,6.7,12,6.7l-4.2,2.3c7,6.1,14.5,7,14.5,7l-3.6,2.3c1.2,1.3,2.5,2.3,3.8,3.1
	l-0.2,1.7c0,0-2.2-4.5-9.4-7l-0.1,3.4c0,0-3.3-3.5-10.2-5.5l-0.2,3.1c0,0-2.3-3.4-9.7-5.2l0.3,3.4c0,0-1.5-2.6-10-4.9l0.4,3.2
	c0,0-3.4-2.7-9.7-4.1l0.7,3.1c0,0-3.5-2.3-9.9-3.7l0.5,2.8c0,0-1.4-1.9-9-3.6l0.3,2.8c0,0-4.2-2.2-8.5-2.5l0,2.7c0,0-2-1.4-7-1.8
	l0,2.3c0,0-2.9-2.2-7-2l0.1,1.6c0,0-4.6-2.4-10.6-0.6c4.1,4.7,9.3,5.2,9.3,5.2l-1,1.3c3.3,2.4,7,2.1,7,2.1l-1.3,2
	c4.4,2.4,6.8,2.3,6.8,2.3l-1.5,2.2c3.8,2.1,8.5,2.5,8.5,2.5l-1.8,2.2c7.3,2.7,9.5,1.9,9.5,1.9l-2,2.1c6.2,2.3,10.4,2.3,10.4,2.3
	l-2.3,2.2c6.1,2.2,10.4,1.8,10.4,1.8l-2.1,2.5c8.4,2.7,11.1,1.4,11.1,1.4l-2.1,2.7c7.2,2.5,11,0.9,11,0.9l-1.6,2.7
	c6.9,2.1,11.6,1,11.6,1l-1.8,2.9c7.4,1.7,11.7-0.8,11.7-0.8l-1.9,3.6c7.9,1.1,13.6-1.8,13.6-1.8l-1.5,3.3c6.7,1.6,13.1-1.4,13.1-1.4
	l-0.8,1.4c-0.6,0.2-1.3,0.5-2,0.9l1.9,1.9c0,0-3.8,0-8.7,3l1.8,1.8c0,0-3.2-0.5-8.3,2.8l2.1,1.6c0,0-2.3-0.5-8.3,3.3l2.1,1.5
	c0,0-3.4,0.6-7.7,3.5l2.2,1.2c0,0-3.3,0.8-7.5,3.8L82,253c0,0-1.9-0.2-7,3.3l1.8,1.3c0,0-3.5,1.3-6.1,3.6l1.6,1.4
	c0,0-1.9,0.4-4.8,3.1l1.4,1.3c0,0-2.9,0.5-4.9,3l1,0.8c0,0-3.9,1.4-6.1,5.9c5,0.1,8.1-2.6,8.1-2.6l0.2,1.3c3.2-0.7,5-2.9,5-2.9
	l0.5,1.8c3.8-1.3,5-2.8,5-2.8l0.5,2.1c3.3-1.1,6.1-3.6,6.1-3.6l0.3,2.2c5.5-2.8,6.2-4.6,6.2-4.6L91,270c4.7-2.3,6.9-4.8,6.9-4.8
	l0.1,2.5c4.6-2.4,6.7-5.1,6.7-5.1l0.3,2.5c6.2-3.5,6.8-5.7,6.8-5.7l0.4,2.7c5.3-2.9,6.4-6,6.4-6l0.7,2.4c5-2.9,6.8-6.3,6.8-6.3
	l0.7,2.6c5-3.4,5.8-7.3,5.8-7.3l1.1,3.1c4.9-4,6.3-8.9,6.3-8.9l1.1,2.6c4.6-3.1,6.2-8.4,6.2-8.4l1,2.7c2.9-2.5,4.3-4.8,5.1-6.4v54.4
	c0,2.2,1.8,4.1,4.1,4.1c2.2,0,4.1-1.8,4.1-4.1v-54.9c0.5,1.4,2.1,5.5,5.7,8.1l1.2-2.6c0,0,1.2,5,5.9,9.2l1.2-3c0,0,0.6,3.9,5.5,7.5
	l0.8-2.5c0,0,1.7,3.5,6.5,6.6l0.8-2.4c0,0,1,3.1,6.2,6.2l0.6-2.6c0,0,0.5,2.3,6.5,6l0.4-2.5c0,0,2,2.8,6.5,5.4l0.2-2.5
	c0,0,2.1,2.6,6.7,5.1l0.3-2.3c0,0,0.6,1.8,6,4.8l0.4-2.2c0,0,2.7,2.6,5.9,3.9l0.6-2.1c0,0,1.2,1.5,4.9,3l0.6-1.8
	c0,0,1.7,2.3,4.9,3.1l0.3-1.3c0,0,2.9,2.9,8,2.9c-2.1-4.6-5.8-6.1-5.8-6.1l1.1-0.8c-2-2.6-4.8-3.2-4.8-3.2l1.4-1.2
	c-2.8-2.8-4.7-3.3-4.7-3.3l1.7-1.4c-2.4-2.5-5.9-3.9-5.9-3.9l1.9-1.2c-4.9-3.8-6.8-3.6-6.8-3.6l2-1.1c-4.1-3.2-7.4-4.1-7.4-4.1
	l2.2-1.1c-4.1-3.1-7.5-3.8-7.5-3.8l2.2-1.4c-5.8-4-8.1-3.6-8.1-3.6l2.2-1.5c-4.9-3.5-8.2-3.2-8.2-3.2l1.8-1.7
	c-3.7-2.5-6.8-3.2-8-3.3l-0.2-0.4l0.4-0.4c1.9,0.7,7,2.4,12.3,1.1l-1.5-3.3c0,0,5.7,2.9,13.6,1.8l-1.9-3.6c0,0,4.3,2.6,11.7,0.8
	l-1.8-2.9c0,0,4.7,1.2,11.6-1l-1.6-2.7c0,0,3.8,1.6,11-0.9l-2.1-2.7c0,0,2.6,1.4,11.1-1.4l-2.1-2.5c0,0,4.3,0.4,10.4-1.8l-2.3-2.2
	c0,0,4.2,0,10.4-2.3l-2-2.1c0,0,2.2,0.9,9.5-1.9l-1.8-2.2c0,0,4.7-0.4,8.5-2.5l-1.5-2.2c0,0,2.4,0.1,6.8-2.3l-1.3-2
	C294.7,186.8,298.3,187.1,301.6,184.7z"/>
</svg>
