<?xml version="1.0" encoding="utf-8"?>
<!-- Generator: Adobe Illustrator 27.9.0, SVG Export Plug-In . SVG Version: 6.00 Build 0)  -->
<svg version="1.1" id="Layer_1" xmlns="http://www.w3.org/2000/svg" xmlns:xlink="http://www.w3.org/1999/xlink" x="0px" y="0px"
	 viewBox="0 0 160 160" style="enable-background:new 0 0 160 160;" xml:space="preserve">
<style type="text/css">
	.st0{fill:#EADED8;}
	.st1{fill:#02506E;}
</style>
<circle class="st0" cx="100.1" cy="86" r="50.4"/>
<g id="THC">
	<g>
		<g>
			<path class="st1" d="M45.4,80.8c-1.3,0.8-2.7,1.5-4,2.3c-2.1,1.2-4.2,2.4-6.3,3.7c-0.5,0.3-1,0.6-1.5,0.8c0.2,0,0.4,0,0.6,0
				c-1.3-0.8-2.7-1.5-4-2.3c-2.1-1.2-4.2-2.4-6.3-3.7c-0.5-0.3-1-0.6-1.5-0.8c0.1,0.2,0.2,0.3,0.3,0.5c0-1.5,0-3.1,0-4.6
				c0-2.4,0-4.9,0-7.3c0-0.6,0-1.1,0-1.7c-0.1,0.2-0.2,0.3-0.3,0.5c1.3-0.8,2.7-1.5,4-2.3c2.1-1.2,4.2-2.4,6.3-3.7
				c0.5-0.3,1-0.6,1.5-0.8c-0.2,0-0.4,0-0.6,0c1.3,0.8,2.7,1.5,4,2.3c2.1,1.2,4.2,2.4,6.3,3.7c0.5,0.3,1,0.6,1.5,0.8
				c-0.1-0.2-0.2-0.3-0.3-0.5c0,1.5,0,3.1,0,4.6c0,2.4,0,4.9,0,7.3c0,0.6,0,1.1,0,1.7c0,0.7,1.1,0.7,1.1,0c0-1.6,0-3.1,0-4.7
				c0-2.4,0-4.9,0-7.3c0-0.5,0-1.1,0-1.6c0-0.5-0.8-0.8-1.1-1c-2-1.2-4-2.3-6.1-3.5c-1.6-0.9-3.2-1.9-4.8-2.8c0,0-0.1,0-0.1,0
				c-0.2-0.1-0.4-0.1-0.6,0c-1.3,0.8-2.7,1.5-4,2.3c-2.1,1.2-4.2,2.4-6.3,3.7c-0.5,0.3-1,0.6-1.5,0.8c-0.2,0.1-0.3,0.3-0.3,0.5
				c0,1.5,0,3.1,0,4.6c0,2.4,0,4.9,0,7.3c0,0.6,0,1.1,0,1.7c0,0.2,0.1,0.4,0.3,0.5c1.3,0.8,2.7,1.5,4,2.3c2.1,1.2,4.2,2.4,6.3,3.7
				c0.5,0.3,1,0.6,1.5,0.8c0.2,0.1,0.4,0.1,0.6,0c1.3-0.8,2.7-1.5,4-2.3c2.1-1.2,4.2-2.4,6.3-3.7c0.5-0.3,1-0.6,1.5-0.8
				C46.6,81.4,46,80.5,45.4,80.8z"/>
		</g>
		<g>
			<path class="st1" d="M57.2,101.2c-1.3,0.8-2.7,1.5-4,2.3c-2.1,1.2-4.2,2.4-6.3,3.7c-0.5,0.3-1,0.6-1.5,0.8c0.2,0,0.4,0,0.6,0
				c-1.3-0.8-2.7-1.5-4-2.3c-2.1-1.2-4.2-2.4-6.3-3.7c-0.5-0.3-1-0.6-1.5-0.8c0.1,0.2,0.2,0.3,0.3,0.5c0-1.5,0-3.1,0-4.6
				c0-2.4,0-4.9,0-7.3c0-0.6,0-1.1,0-1.7c-0.1,0.2-0.2,0.3-0.3,0.5c1.3-0.8,2.7-1.5,4-2.3c2.1-1.2,4.2-2.4,6.3-3.7
				c0.5-0.3,1-0.6,1.5-0.8c-0.2,0-0.4,0-0.6,0c1.3,0.8,2.7,1.5,4,2.3c2.1,1.2,4.2,2.4,6.3,3.7c0.5,0.3,1,0.6,1.5,0.8
				c-0.1-0.2-0.2-0.3-0.3-0.5c0,1.5,0,3.1,0,4.6c0,2.4,0,4.9,0,7.3c0,0.6,0,1.1,0,1.7c0,0.7,1.1,0.7,1.1,0c0-1.6,0-3.1,0-4.7
				c0-2.4,0-4.9,0-7.3c0-0.5,0-1.1,0-1.6c0-0.5-0.8-0.8-1.1-1c-2-1.2-4-2.3-6.1-3.5c-1.6-0.9-3.2-1.9-4.8-2.8c0,0-0.1,0-0.1,0
				c-0.2-0.1-0.4-0.1-0.6,0c-1.3,0.8-2.7,1.5-4,2.3c-2.1,1.2-4.2,2.4-6.3,3.7c-0.5,0.3-1,0.6-1.5,0.8c-0.2,0.1-0.3,0.3-0.3,0.5
				c0,1.5,0,3.1,0,4.6c0,2.4,0,4.9,0,7.3c0,0.6,0,1.1,0,1.7c0,0.2,0.1,0.4,0.3,0.5c1.3,0.8,2.7,1.5,4,2.3c2.1,1.2,4.2,2.4,6.3,3.7
				c0.5,0.3,1,0.6,1.5,0.8c0.2,0.1,0.4,0.1,0.6,0c1.3-0.8,2.7-1.5,4-2.3c2.1-1.2,4.2-2.4,6.3-3.7c0.5-0.3,1-0.6,1.5-0.8
				C58.3,101.8,57.8,100.9,57.2,101.2z"/>
		</g>
		<g>
			<path class="st1" d="M80.7,101.2c-1.3,0.8-2.7,1.5-4,2.3c-2.1,1.2-4.2,2.4-6.3,3.7c-0.5,0.3-1,0.6-1.5,0.8c0.2,0,0.4,0,0.6,0
				c-1.3-0.8-2.7-1.5-4-2.3c-2.1-1.2-4.2-2.4-6.3-3.7c-0.5-0.3-1-0.6-1.5-0.8c0.1,0.2,0.2,0.3,0.3,0.5c0-1.5,0-3.1,0-4.6
				c0-2.4,0-4.9,0-7.3c0-0.6,0-1.1,0-1.7c-0.1,0.2-0.2,0.3-0.3,0.5c1.3-0.8,2.7-1.5,4-2.3c2.1-1.2,4.2-2.4,6.3-3.7
				c0.5-0.3,1-0.6,1.5-0.8c-0.2,0-0.4,0-0.6,0c1.3,0.8,2.7,1.5,4,2.3c2.1,1.2,4.2,2.4,6.3,3.7c0.5,0.3,1,0.6,1.5,0.8
				c-0.1-0.2-0.2-0.3-0.3-0.5c0,1.5,0,3.1,0,4.6c0,2.4,0,4.9,0,7.3c0,0.6,0,1.1,0,1.7c0,0.7,1.1,0.7,1.1,0c0-1.6,0-3.1,0-4.7
				c0-2.4,0-4.9,0-7.3c0-0.5,0-1.1,0-1.6c0-0.5-0.8-0.8-1.1-1c-2-1.2-4-2.3-6.1-3.5c-1.6-0.9-3.2-1.9-4.8-2.8c0,0-0.1,0-0.1,0
				c-0.2-0.1-0.4-0.1-0.6,0c-0.8,0.5-1.6,1-2.5,1.4c-1.7,1-3.3,1.9-5,2.9c-1.3,0.7-2.6,1.5-3.9,2.2c-0.3,0.2-0.7,0.3-0.7,0.7
				c0,0.3,0,0.7,0,1c0,1.7,0,3.4,0,5c0,1.8,0,3.7,0,5.5c0,0.6,0,1.1,0,1.7c0,0.3,0,0.6,0.3,0.9c1,0.6,2,1.2,3.1,1.8
				c1.7,1,3.4,1.9,5.1,2.9c1.1,0.7,2.3,1.3,3.4,2c0.1,0,0.1,0.1,0.2,0.1c0.2,0.1,0.4,0.1,0.6,0c1.3-0.8,2.7-1.5,4-2.3
				c2.1-1.2,4.2-2.4,6.3-3.7c0.5-0.3,1-0.6,1.5-0.8C81.9,101.8,81.3,100.9,80.7,101.2z"/>
		</g>
		<g>
			<path class="st1" d="M104.3,101.2c-1.3,0.8-2.7,1.5-4,2.3c-2.1,1.2-4.2,2.4-6.3,3.7c-0.5,0.3-1,0.6-1.5,0.8c0.2,0,0.4,0,0.6,0
				c-1.3-0.8-2.7-1.5-4-2.3c-2.1-1.2-4.2-2.4-6.3-3.7c-0.5-0.3-1-0.6-1.5-0.8c-0.6-0.4-1.2,0.6-0.6,1c1.3,0.8,2.7,1.5,4,2.3
				c2.1,1.2,4.2,2.4,6.3,3.7c0.5,0.3,1,0.6,1.5,0.8c0.2,0.1,0.4,0.1,0.6,0c1.3-0.8,2.7-1.5,4-2.3c2.1-1.2,4.2-2.4,6.3-3.7
				c0.5-0.3,1-0.6,1.5-0.8C105.4,101.8,104.9,100.9,104.3,101.2L104.3,101.2z"/>
		</g>
		<g>
			<path class="st1" d="M127.8,101.2c-1.3,0.8-2.7,1.5-4,2.3c-2.1,1.2-4.2,2.4-6.3,3.7c-0.5,0.3-1,0.6-1.5,0.8c0.2,0,0.4,0,0.6,0
				c-1.3-0.8-2.7-1.5-4-2.3c-2.1-1.2-4.2-2.4-6.3-3.7c-0.5-0.3-1-0.6-1.5-0.8c-0.6-0.4-1.2,0.6-0.6,1c1.3,0.8,2.7,1.5,4,2.3
				c2.1,1.2,4.2,2.4,6.3,3.7c0.5,0.3,1,0.6,1.5,0.8c0.2,0.1,0.4,0.1,0.6,0c1.3-0.8,2.7-1.5,4-2.3c2.1-1.2,4.2-2.4,6.3-3.7
				c0.5-0.3,1-0.6,1.5-0.8C129,101.8,128.4,100.9,127.8,101.2L127.8,101.2z"/>
		</g>
		<g>
			<path class="st1" d="M140.2,108c-1.3-0.8-2.7-1.5-4-2.3c-2.1-1.2-4.2-2.4-6.3-3.7c-0.5-0.3-1-0.6-1.5-0.8c-0.6-0.4-1.2,0.6-0.6,1
				c1.3,0.8,2.7,1.5,4,2.3c2.1,1.2,4.2,2.4,6.3,3.7c0.5,0.3,1,0.6,1.5,0.8C140.2,109.4,140.8,108.4,140.2,108L140.2,108z"/>
		</g>
		<g>
			<path class="st1" d="M34.3,64c1,0.6,2,1.1,3,1.7c1.6,0.9,3.2,1.8,4.7,2.7c0.4,0.2,0.7,0.4,1.1,0.6c0.6,0.4,1.2-0.6,0.6-1
				c-1-0.6-2-1.1-3-1.7c-1.6-0.9-3.2-1.8-4.7-2.7c-0.4-0.2-0.7-0.4-1.1-0.6C34.2,62.7,33.7,63.6,34.3,64L34.3,64z"/>
		</g>
		<g>
			<path class="st1" d="M69.1,84.3c1,0.6,2,1.1,3,1.7c1.6,0.9,3.2,1.8,4.7,2.7c0.4,0.2,0.7,0.4,1.1,0.6c0.6,0.4,1.2-0.6,0.6-1
				c-1-0.6-2-1.1-3-1.7c-1.6-0.9-3.2-1.8-4.7-2.7c-0.4-0.2-0.7-0.4-1.1-0.6C69,83,68.5,83.9,69.1,84.3L69.1,84.3z"/>
		</g>
		<g>
			<path class="st1" d="M78,100.3c-1,0.6-2,1.1-3,1.7c-1.6,0.9-3.2,1.8-4.7,2.7c-0.4,0.2-0.7,0.4-1.1,0.6c-0.6,0.4-0.1,1.3,0.6,1
				c1-0.6,2-1.1,3-1.7c1.6-0.9,3.2-1.8,4.7-2.7c0.4-0.2,0.7-0.4,1.1-0.6C79.2,100.9,78.7,99.9,78,100.3L78,100.3z"/>
		</g>
		<g>
			<path class="st1" d="M61.2,100.8c0-1.1,0-2.3,0-3.4c0-1.8,0-3.6,0-5.5c0-0.4,0-0.8,0-1.3c0-0.7-1.1-0.7-1.1,0c0,1.1,0,2.3,0,3.4
				c0,1.8,0,3.6,0,5.5c0,0.4,0,0.8,0,1.3C60.1,101.5,61.2,101.5,61.2,100.8L61.2,100.8z"/>
		</g>
		<g>
			<path class="st1" d="M69.9,81c0-1.5,0-3.1,0-4.6c0-2.4,0-4.9,0-7.3c0-0.6,0-1.1,0-1.7c0-0.7-1.1-0.7-1.1,0c0,1.5,0,3.1,0,4.6
				c0,2.4,0,4.9,0,7.3c0,0.6,0,1.1,0,1.7C68.8,81.7,69.9,81.7,69.9,81L69.9,81z"/>
		</g>
		<g>
			<path class="st1" d="M34.5,61c0-1.5,0-3.1,0-4.6c0-2.4,0-4.9,0-7.3c0-0.6,0-1.1,0-1.7c0-0.7-1.1-0.7-1.1,0c0,1.5,0,3.1,0,4.6
				c0,2.4,0,4.9,0,7.3c0,0.6,0,1.1,0,1.7C33.4,61.7,34.5,61.7,34.5,61L34.5,61z"/>
		</g>
		<g>
			<path class="st1" d="M22.6,102.1c1.3,0,2.5,0,3.8,0c2,0,4,0,6,0c0.5,0,0.9,0,1.4,0c0.7,0,0.7-1.1,0-1.1c-1.3,0-2.5,0-3.8,0
				c-2,0-4,0-6,0c-0.5,0-0.9,0-1.4,0C21.9,101,21.9,102.1,22.6,102.1L22.6,102.1z"/>
		</g>
		<g>
			<path class="st1" d="M34.3,108.5c0-2,0-4.1,0-6.1c0-0.3,0-0.6,0-0.9c0-0.7-1.1-0.7-1.1,0c0,2,0,4.1,0,6.1c0,0.3,0,0.6,0,0.9
				C33.2,109.2,34.3,109.2,34.3,108.5L34.3,108.5z"/>
		</g>
		<g>
			<path class="st1" d="M32.4,44.2c-0.3,0.1-0.8,0.3-1.5,0.3c-1.6,0-2.8-1-2.8-2.9c0-1.8,1.2-3,3-3c0.7,0,1.2,0.2,1.4,0.3l-0.2,0.6
				c-0.3-0.1-0.7-0.2-1.2-0.2c-1.4,0-2.3,0.9-2.3,2.4c0,1.4,0.8,2.3,2.2,2.3c0.5,0,0.9-0.1,1.2-0.2L32.4,44.2z"/>
			<path class="st1" d="M34.1,38.6v2.4h2.8v-2.4h0.8v5.8h-0.8v-2.7h-2.8v2.7h-0.8v-5.8H34.1z"/>
			<path class="st1" d="M38.7,46.8c0.1,0.1,0.4,0.2,0.7,0.2c0.6,0,0.7-0.4,0.7-0.6c0-0.5-0.4-0.6-0.8-0.6H39v-0.3h0.2
				c0.3,0,0.7-0.2,0.7-0.5c0-0.3-0.2-0.5-0.6-0.5c-0.3,0-0.5,0.1-0.6,0.2l-0.1-0.3c0.2-0.1,0.5-0.2,0.9-0.2c0.6,0,0.9,0.4,0.9,0.8
				c0,0.3-0.2,0.6-0.6,0.8v0c0.4,0.1,0.7,0.4,0.7,0.8c0,0.5-0.4,1-1.2,1c-0.4,0-0.7-0.1-0.8-0.2L38.7,46.8z"/>
		</g>
		<g>
			<path class="st1" d="M12.3,104.1c-0.3,0.1-0.8,0.3-1.5,0.3c-1.6,0-2.8-1-2.8-2.9c0-1.8,1.2-3,3-3c0.7,0,1.2,0.2,1.4,0.3l-0.2,0.6
				C11.8,99.1,11.4,99,11,99c-1.4,0-2.3,0.9-2.3,2.4c0,1.4,0.8,2.3,2.2,2.3c0.5,0,0.9-0.1,1.2-0.2L12.3,104.1z"/>
			<path class="st1" d="M14,98.5v2.4h2.8v-2.4h0.8v5.8h-0.8v-2.7H14v2.7h-0.8v-5.8H14z"/>
			<path class="st1" d="M18.5,106.6c0.1,0.1,0.4,0.2,0.7,0.2c0.6,0,0.7-0.4,0.7-0.6c0-0.5-0.4-0.6-0.8-0.6h-0.2v-0.3h0.2
				c0.3,0,0.7-0.2,0.7-0.5c0-0.3-0.2-0.5-0.6-0.5c-0.3,0-0.5,0.1-0.6,0.2l-0.1-0.3c0.2-0.1,0.5-0.2,0.9-0.2c0.6,0,0.9,0.4,0.9,0.8
				c0,0.3-0.2,0.6-0.6,0.8v0c0.4,0.1,0.7,0.4,0.7,0.8c0,0.5-0.4,1-1.2,1c-0.4,0-0.7-0.1-0.8-0.2L18.5,106.6z"/>
		</g>
		<g>
			<path class="st1" d="M31.9,116.5c-0.3,0.1-0.8,0.3-1.5,0.3c-1.6,0-2.8-1-2.8-2.9c0-1.8,1.2-3,3-3c0.7,0,1.2,0.2,1.4,0.3l-0.2,0.6
				c-0.3-0.1-0.7-0.2-1.2-0.2c-1.4,0-2.3,0.9-2.3,2.4c0,1.4,0.8,2.3,2.2,2.3c0.5,0,0.9-0.1,1.2-0.2L31.9,116.5z"/>
			<path class="st1" d="M33.6,110.9v2.4h2.8v-2.4h0.8v5.8h-0.8V114h-2.8v2.7h-0.8v-5.8H33.6z"/>
			<path class="st1" d="M38.1,119c0.1,0.1,0.4,0.2,0.7,0.2c0.6,0,0.7-0.4,0.7-0.6c0-0.5-0.4-0.6-0.8-0.6h-0.2v-0.3h0.2
				c0.3,0,0.7-0.2,0.7-0.5c0-0.3-0.2-0.5-0.6-0.5c-0.3,0-0.5,0.1-0.6,0.2l-0.1-0.3c0.2-0.1,0.5-0.2,0.9-0.2c0.6,0,0.9,0.4,0.9,0.8
				c0,0.3-0.2,0.6-0.6,0.8v0c0.4,0.1,0.7,0.4,0.7,0.8c0,0.5-0.4,1-1.2,1c-0.4,0-0.7-0.1-0.8-0.2L38.1,119z"/>
		</g>
		<g>
			<path class="st1" d="M142.2,116.5c-0.3,0.1-0.8,0.3-1.5,0.3c-1.6,0-2.8-1-2.8-2.9c0-1.8,1.2-3,3-3c0.7,0,1.2,0.2,1.4,0.3
				l-0.2,0.6c-0.3-0.1-0.7-0.2-1.2-0.2c-1.4,0-2.3,0.9-2.3,2.4c0,1.4,0.8,2.3,2.2,2.3c0.5,0,0.9-0.1,1.2-0.2L142.2,116.5z"/>
			<path class="st1" d="M143.9,110.9v2.4h2.8v-2.4h0.8v5.8h-0.8V114h-2.8v2.7h-0.8v-5.8H143.9z"/>
			<path class="st1" d="M148.5,119c0.1,0.1,0.4,0.2,0.7,0.2c0.6,0,0.7-0.4,0.7-0.6c0-0.5-0.4-0.6-0.8-0.6h-0.2v-0.3h0.2
				c0.3,0,0.7-0.2,0.7-0.5c0-0.3-0.2-0.5-0.6-0.5c-0.3,0-0.5,0.1-0.6,0.2l-0.1-0.3c0.2-0.1,0.5-0.2,0.9-0.2c0.6,0,0.9,0.4,0.9,0.8
				c0,0.3-0.2,0.6-0.6,0.8v0c0.4,0.1,0.7,0.4,0.7,0.8c0,0.5-0.4,1-1.2,1c-0.4,0-0.7-0.1-0.8-0.2L148.5,119z"/>
		</g>
		<g>
			<path class="st1" d="M68.5,62.8c0,2-1.2,3-2.7,3c-1.5,0-2.6-1.2-2.6-2.9c0-1.8,1.1-3,2.7-3C67.5,59.9,68.5,61.1,68.5,62.8z
				 M64,62.9c0,1.2,0.7,2.3,1.9,2.3c1.2,0,1.9-1.1,1.9-2.4c0-1.2-0.6-2.4-1.8-2.4C64.6,60.5,64,61.7,64,62.9z"/>
			<path class="st1" d="M70.2,60v2.4H73V60h0.8v5.8H73v-2.7h-2.8v2.7h-0.8V60H70.2z"/>
		</g>
		<g>
			<path class="st1" d="M48.4,113.7c0,2-1.2,3-2.7,3c-1.5,0-2.6-1.2-2.6-2.9c0-1.8,1.1-3,2.7-3C47.4,110.8,48.4,112,48.4,113.7z
				 M43.9,113.8c0,1.2,0.7,2.3,1.9,2.3c1.2,0,1.9-1.1,1.9-2.4c0-1.2-0.6-2.4-1.8-2.4S43.9,112.6,43.9,113.8z"/>
		</g>
	</g>
	<g>
		<path class="st1" d="M90.3,76.5H85v-3.7h15v3.7h-5.3v15.8h-4.4V76.5z"/>
		<path class="st1" d="M106.8,72.8v7.5h7.2v-7.5h4.4v19.5H114v-8.1h-7.2v8.1h-4.4V72.8H106.8z"/>
		<path class="st1" d="M136.5,91.7c-0.8,0.4-2.6,0.8-5,0.8c-6.7,0-10.2-4.2-10.2-9.8c0-6.6,4.7-10.3,10.6-10.3c2.3,0,4,0.4,4.8,0.9
			l-0.9,3.5c-0.9-0.4-2.1-0.7-3.7-0.7c-3.5,0-6.2,2.1-6.2,6.4c0,3.9,2.3,6.3,6.2,6.3c1.4,0,2.8-0.3,3.7-0.6L136.5,91.7z"/>
	</g>
</g>
</svg>
