<?xml version="1.0" encoding="utf-8"?>
<!-- Generator: Adobe Illustrator 27.9.0, SVG Export Plug-In . SVG Version: 6.00 Build 0)  -->
<svg version="1.1" id="Layer_1" xmlns="http://www.w3.org/2000/svg" xmlns:xlink="http://www.w3.org/1999/xlink" x="0px" y="0px"
	 viewBox="0 0 67.8 80" style="enable-background:new 0 0 67.8 80;" xml:space="preserve">
<style type="text/css">
	.st0{fill:#7E4151;}
	.st1{fill:#F3A362;}
	.st2{fill:#723242;}
	.st3{opacity:0.3;fill:#723242;}
	.st4{opacity:0.35;fill:#FEFAD7;}
</style>
<g id="XMLID_11_">
	
		<rect id="XMLID_9_" x="9" y="23.8" transform="matrix(0.7354 -0.6776 0.6776 0.7354 -13.3417 31.7392)" class="st0" width="49.9" height="18.3"/>
	<polygon id="XMLID_8_" class="st1" points="35.8,43.7 28.8,25.3 33.2,21.2 40.6,39.3 	"/>
	<polygon id="XMLID_7_" class="st1" points="32.5,46.7 25.1,28.7 27.1,26.9 34.3,45 	"/>
	<polygon id="XMLID_6_" class="st1" points="21.8,56.6 9.4,43.1 24.5,29.3 31.9,47.3 	"/>
	<path id="XMLID_5_" class="st2" d="M21.8,56.5L9.4,43.1c0,0-2.1-0.9-4.4,1.7l1.4,0.4l0.2,2.1l2.2,0.4L9,49.9l2.6,0.8l0.1,2.1
		l2.5,0.6l0.2,2.3l2.4,0.4l0,2.2l2.4,0.4l0.7,2C19.8,60.8,22.2,59.2,21.8,56.5z"/>
	<path id="XMLID_4_" class="st2" d="M58.5,22.8L46.1,9.4c0,0-0.7-2.1,2.1-4.2l0.3,1.4L50.6,7l0.2,2.2l2.2,0.4l0.6,2.7l2.1,0.2
		l0.4,2.5l2.3,0.4l0.2,2.4l2.2,0.2l0.2,2.4l2,0.9C62.8,21.2,61.1,23.4,58.5,22.8z"/>
	
		<rect id="XMLID_3_" x="3.6" y="26" transform="matrix(0.7354 -0.6776 0.6776 0.7354 -10.7759 26.4464)" class="st3" width="49.8" height="2.1"/>
	<path id="XMLID_2_" class="st4" d="M22.7,53.1c-0.3-0.3-0.3-0.8,0-1.1l6.1-5.6c0.3-0.3,0.8-0.3,1.1,0l0,0c0.3,0.3,0.3,0.8,0,1.1
		l-6.1,5.6C23.4,53.4,22.9,53.4,22.7,53.1L22.7,53.1z"/>
	<path id="XMLID_1_" class="st4" d="M35.2,41.5c-0.3-0.3-0.3-0.8,0-1.1l20-18.4c0.3-0.3,0.8-0.3,1.1,0l0,0c0.3,0.3,0.3,0.8,0,1.1
		l-20,18.4C36,41.9,35.5,41.8,35.2,41.5L35.2,41.5z"/>
</g>
</svg>
