<?xml version="1.0" encoding="utf-8"?>
<!-- Generator: Adobe Illustrator 27.9.0, SVG Export Plug-In . SVG Version: 6.00 Build 0)  -->
<svg version="1.1" id="Layer_1" xmlns="http://www.w3.org/2000/svg" xmlns:xlink="http://www.w3.org/1999/xlink" x="0px" y="0px"
	 viewBox="0 0 160 160" style="enable-background:new 0 0 160 160;" xml:space="preserve">
<style type="text/css">
	.st0{fill:#D9EDE1;}
	.st1{fill:#4E873E;}
	.st2{fill:#66B445;}
	.st3{fill:#006C5D;}
	.st4{fill:#004B3F;}
</style>
<circle class="st0" cx="81.3" cy="91.7" r="56.9"/>
<g>
	<g>
		<g>
			<g>
				<path class="st1" d="M59.7,86.6c7.5,3.4,14,8.6,19.1,15.1c1.4,1.8,2.7,3.7,3.8,5.7c0.3,0.5-0.5,0.8-0.8,0.3
					c-4-6.9-9.7-12.8-16.4-17.1c-1.9-1.2-3.9-2.3-6-3.3C58.9,87.2,59.2,86.4,59.7,86.6z"/>
				<g>
					<g>
						<path class="st1" d="M58.9,101.5l1.7-13.9C60.6,87.6,65.3,89.5,58.9,101.5z"/>
						<path class="st2" d="M58.9,101.5l1.7-13.9C60.6,87.6,55.9,88.2,58.9,101.5z"/>
					</g>
					<g>
						<path class="st1" d="M47.8,100.3l13-12.6C60.8,87.6,60.3,95,47.8,100.3z"/>
						<path class="st2" d="M47.8,100.3l13-12.6C60.8,87.6,53.7,88,47.8,100.3z"/>
					</g>
					<g>
						<path class="st2" d="M38.4,79.3l22.4,8.3C60.8,87.6,52,79.3,38.4,79.3z"/>
						<path class="st1" d="M38.4,79.3l22.4,8.3C60.8,87.6,48.7,88.2,38.4,79.3z"/>
					</g>
					<g>
						<path class="st2" d="M48.9,71.4l11.9,16.2C60.8,87.6,60.3,78.8,48.9,71.4z"/>
						<path class="st1" d="M48.9,71.4l11.9,16.2C60.8,87.6,52.6,84.5,48.9,71.4z"/>
					</g>
					<g>
						<path class="st2" d="M59.1,69.6l1.6,18.1C60.8,87.6,65.2,81.7,59.1,69.6z"/>
						<path class="st1" d="M59.1,69.6l1.6,18.1C60.8,87.6,55.7,82.7,59.1,69.6z"/>
					</g>
					<g>
						<path class="st2" d="M68.4,75.9l-7.8,11.7C60.6,87.6,65.5,89.2,68.4,75.9z"/>
						<path class="st1" d="M68.4,75.9l-7.8,11.7C60.6,87.6,57.4,84,68.4,75.9z"/>
					</g>
					<g>
						<path class="st1" d="M41.2,92.2l19.6-4.6C60.8,87.6,54.7,94,41.2,92.2z"/>
						<path class="st2" d="M41.2,92.2l19.6-4.6C60.8,87.6,52.5,84.7,41.2,92.2z"/>
					</g>
				</g>
			</g>
			<g>
				<path class="st1" d="M81.3,108.5c0.8-5.6,3-10.9,6.5-15.3c3.7-4.7,8.7-8.2,14.3-10.1c3.3-1.1,6.7-1.8,10.2-1.8
					c0.5,0,0.7,0.8,0.1,0.8c-6,0-12,1.8-17,5.2c-4.6,3.1-8.3,7.4-10.7,12.5c-1.3,2.8-2.2,5.8-2.6,8.8
					C82,109.2,81.2,109.1,81.3,108.5z"/>
				<g>
					<g>
						<path class="st1" d="M106.6,68.3l3.9,13.5C110.5,81.8,105.4,81.9,106.6,68.3z"/>
						<path class="st2" d="M106.6,68.3l3.9,13.5C110.5,81.8,114.7,79.3,106.6,68.3z"/>
					</g>
					<g>
						<path class="st1" d="M117.4,65.1l-7,16.7C110.4,81.8,107.9,74.8,117.4,65.1z"/>
						<path class="st2" d="M117.4,65.1l-7,16.7C110.4,81.8,116.7,78.6,117.4,65.1z"/>
					</g>
					<g>
						<path class="st2" d="M134.2,80.6l-23.8,1.2C110.4,81.8,121.7,86,134.2,80.6z"/>
						<path class="st1" d="M134.2,80.6l-23.8,1.2C110.4,81.8,121.3,76.5,134.2,80.6z"/>
					</g>
					<g>
						<path class="st2" d="M127.7,92.1l-17.3-10.2C110.4,81.8,114.3,89.7,127.7,92.1z"/>
						<path class="st1" d="M127.7,92.1l-17.3-10.2C110.4,81.8,119.2,81.5,127.7,92.1z"/>
					</g>
					<g>
						<path class="st2" d="M119,97.8l-8.6-15.9C110.4,81.8,108.6,89,119,97.8z"/>
						<path class="st1" d="M119,97.8l-8.6-15.9C110.4,81.8,117,84.3,119,97.8z"/>
					</g>
					<g>
						<path class="st2" d="M108,95.6l2.5-13.8C110.5,81.8,105.5,82.2,108,95.6z"/>
						<path class="st1" d="M108,95.6l2.5-13.8C110.5,81.8,114.9,83.9,108,95.6z"/>
					</g>
					<g>
						<path class="st1" d="M126.6,69.9l-16.2,11.9C110.4,81.8,113.5,73.5,126.6,69.9z"/>
						<path class="st2" d="M126.6,69.9l-16.2,11.9C110.4,81.8,119.1,81.3,126.6,69.9z"/>
					</g>
				</g>
			</g>
			<g>
				<path class="st1" d="M84.3,85c2.4-7.7,5.8-15.1,10-21.9c2.4-3.9,5-7.6,8-11.1c0.4-0.4,1,0.1,0.7,0.5c-5.1,6.2-9.5,13-12.9,20.3
					c-3.4,7.2-6,14.9-7.5,22.7c-0.9,4.4-1.5,8.9-1.7,13.4c0,0.6-0.9,0.4-0.9-0.1C80.3,100.7,81.8,92.7,84.3,85z"/>
				<g>
					<g>
						<path class="st1" d="M87.1,41l15.4,11.5C102.5,52.5,97,56.8,87.1,41z"/>
						<path class="st2" d="M87.1,41l15.4,11.5C102.5,52.5,104.9,46.4,87.1,41z"/>
					</g>
					<g>
						<path class="st1" d="M96.1,28.6l6.2,24C102.3,52.6,93.9,47,96.1,28.6z"/>
						<path class="st2" d="M96.1,28.6l6.2,24C102.3,52.6,106.6,43.9,96.1,28.6z"/>
					</g>
					<g>
						<path class="st2" d="M127.3,31.7l-25,20.9C102.3,52.6,118.2,47.9,127.3,31.7z"/>
						<path class="st1" d="M127.3,31.7l-25,20.9C102.3,52.6,109.8,37.8,127.3,31.7z"/>
					</g>
					<g>
						<path class="st2" d="M129.6,49.6l-27.3,3.1C102.3,52.6,113.1,58,129.6,49.6z"/>
						<path class="st1" d="M129.6,49.6l-27.3,3.1C102.3,52.6,111.6,45,129.6,49.6z"/>
					</g>
					<g>
						<path class="st2" d="M124.9,62.9l-22.6-10.3C102.3,52.6,106.3,61.9,124.9,62.9z"/>
						<path class="st1" d="M124.9,62.9l-22.6-10.3C102.3,52.6,111.6,49.9,124.9,62.9z"/>
					</g>
					<g>
						<path class="st2" d="M111.1,69.6l-8.6-17.1C102.5,52.5,97.3,57.1,111.1,69.6z"/>
						<path class="st1" d="M111.1,69.6l-8.6-17.1C102.5,52.5,108.9,51.1,111.1,69.6z"/>
					</g>
					<g>
						<path class="st1" d="M110.1,26.2l-7.8,26.4C102.3,52.6,98.9,41,110.1,26.2z"/>
						<path class="st2" d="M110.1,26.2l-7.8,26.4C102.3,52.6,111.4,44.8,110.1,26.2z"/>
					</g>
				</g>
			</g>
			<g>
				<path class="st1" d="M68.5,50.2c0.5-5.7,1.4-11.3,2.8-16.9c0.1-0.5,1-0.4,0.9,0.1c-2.4,9.7-3.5,19.8-3.2,29.9
					c0.3,10,2,20,5,29.6c1.7,5.4,3.8,10.6,6.3,15.7c0.2,0.5-0.5,0.8-0.8,0.3c-4.5-9.1-7.7-18.8-9.5-28.7
					C68.2,70.4,67.7,60.2,68.5,50.2z"/>
				<g>
					<g>
						<path class="st1" d="M53.6,36.8l17.5,1.2C71.1,38.1,69,44.1,53.6,36.8z"/>
						<path class="st2" d="M53.6,36.8l17.5,1.2C71.1,38.1,70,32.2,53.6,36.8z"/>
					</g>
					<g>
						<path class="st1" d="M54.4,22.9L71,38.3C71,38.3,61.8,38.1,54.4,22.9z"/>
						<path class="st2" d="M54.4,22.9L71,38.3C71,38.3,70,29.5,54.4,22.9z"/>
					</g>
					<g>
						<path class="st2" d="M79.9,9.9L71,38.3C71,38.3,80.9,26.8,79.9,9.9z"/>
						<path class="st1" d="M79.9,9.9L71,38.3C71,38.3,69.5,23.2,79.9,9.9z"/>
					</g>
					<g>
						<path class="st2" d="M90.5,22.4L71,38.3C71,38.3,82,37.1,90.5,22.4z"/>
						<path class="st1" d="M90.5,22.4L71,38.3C71,38.3,74.4,27.8,90.5,22.4z"/>
					</g>
					<g>
						<path class="st2" d="M93.4,35.1L71,38.3C71,38.3,78.7,43.4,93.4,35.1z"/>
						<path class="st1" d="M93.4,35.1L71,38.3C71,38.3,76.8,31.6,93.4,35.1z"/>
					</g>
					<g>
						<path class="st2" d="M86.1,47l-15.1-8.9C71.1,38.1,69.4,44.2,86.1,47z"/>
						<path class="st1" d="M86.1,47l-15.1-8.9C71.1,38.1,75.4,33.9,86.1,47z"/>
					</g>
					<g>
						<path class="st1" d="M64,14.1l7,24.1C71,38.3,62.7,31.1,64,14.1z"/>
						<path class="st2" d="M64,14.1l7,24.1C71,38.3,74.2,27.8,64,14.1z"/>
					</g>
				</g>
			</g>
			<g>
				<path class="st1" d="M53,58.4c5.8,4.8,10.9,10.4,15.2,16.6c4.3,6.2,7.8,12.9,10.2,20c1.4,4,2.5,8.1,3.3,12.3
					c0.1,0.5-0.8,0.7-0.8,0.1c-1.3-7.3-3.7-14.4-7-21.1c-3.3-6.7-7.5-12.9-12.4-18.5c-2.8-3.1-5.8-6.1-9-8.7
					C52,58.7,52.6,58,53,58.4z"/>
				<g>
					<g>
						<path class="st1" d="M44.9,74l8.4-14.5C53.3,59.5,57.6,63.9,44.9,74z"/>
						<path class="st2" d="M44.9,74l8.4-14.5C53.3,59.5,47.8,58,44.9,74z"/>
					</g>
					<g>
						<path class="st1" d="M33.3,67.4l20.2-7.8C53.5,59.7,49.5,67.5,33.3,67.4z"/>
						<path class="st2" d="M33.3,67.4l20.2-7.8C53.5,59.7,45.5,56.8,33.3,67.4z"/>
					</g>
					<g>
						<path class="st2" d="M32.8,40.1l20.7,19.6C53.5,59.6,47.8,46.4,32.8,40.1z"/>
						<path class="st1" d="M32.8,40.1l20.7,19.6C53.5,59.6,39.9,54.6,32.8,40.1z"/>
					</g>
					<g>
						<path class="st2" d="M48.1,36.3l5.4,23.4C53.5,59.6,57.1,49.7,48.1,36.3z"/>
						<path class="st1" d="M48.1,36.3l5.4,23.4C53.5,59.6,46,52.3,48.1,36.3z"/>
					</g>
					<g>
						<path class="st2" d="M60.2,39l-6.7,20.6C53.5,59.6,61.1,55.2,60.2,39z"/>
						<path class="st1" d="M60.2,39l-6.7,20.6C53.5,59.6,50.2,51.9,60.2,39z"/>
					</g>
					<g>
						<path class="st2" d="M67.3,50.3l-14,9.2C53.3,59.5,57.9,63.5,67.3,50.3z"/>
						<path class="st1" d="M67.3,50.3l-14,9.2C53.3,59.5,51.5,54.1,67.3,50.3z"/>
					</g>
					<g>
						<path class="st1" d="M29.8,55.5l23.6,4.1C53.5,59.7,43.8,63.8,29.8,55.5z"/>
						<path class="st2" d="M29.8,55.5l23.6,4.1C53.5,59.7,45.8,52.5,29.8,55.5z"/>
					</g>
				</g>
			</g>
			<g>
				<path class="st1" d="M80.8,77.8c0.6-2.8,1.4-5.6,2.3-8.3c0.2-0.5,1-0.2,0.8,0.3c-3.3,9.7-4.7,20-4,30.3c0.2,2.9,0.5,5.7,1,8.6
					c0.1,0.5-0.8,0.7-0.8,0.1C78.3,98.5,78.6,88,80.8,77.8z"/>
				<g>
					<g>
						<path class="st1" d="M69,70.2L83,71C83,71,81.4,75.9,69,70.2z"/>
						<path class="st2" d="M69,70.2L83,71C83,71,82,66.3,69,70.2z"/>
					</g>
					<g>
						<path class="st1" d="M69.5,59l13.4,12.2C82.9,71.2,75.6,71.2,69.5,59z"/>
						<path class="st2" d="M69.5,59l13.4,12.2C82.9,71.2,82.1,64.2,69.5,59z"/>
					</g>
					<g>
						<path class="st2" d="M89.8,48.4L83,71.2C83,71.2,90.7,61.9,89.8,48.4z"/>
						<path class="st1" d="M89.8,48.4L83,71.2C83,71.2,81.6,59.2,89.8,48.4z"/>
					</g>
					<g>
						<path class="st2" d="M98.4,58.4L83,71.2C83,71.2,91.7,70.2,98.4,58.4z"/>
						<path class="st1" d="M98.4,58.4L83,71.2C83,71.2,85.6,62.8,98.4,58.4z"/>
					</g>
					<g>
						<path class="st2" d="M100.9,68.4L83,71.2C83,71.2,89.1,75.3,100.9,68.4z"/>
						<path class="st1" d="M100.9,68.4L83,71.2C83,71.2,87.5,65.8,100.9,68.4z"/>
					</g>
					<g>
						<path class="st2" d="M95.1,78.1L83,71C83,71,81.7,76,95.1,78.1z"/>
						<path class="st1" d="M95.1,78.1L83,71C83,71,86.4,67.6,95.1,78.1z"/>
					</g>
					<g>
						<path class="st1" d="M77.1,52l5.8,19.2C82.9,71.2,76.2,65.5,77.1,52z"/>
						<path class="st2" d="M77.1,52l5.8,19.2C82.9,71.2,85.4,62.8,77.1,52z"/>
					</g>
				</g>
			</g>
		</g>
		<g>
			<polygon class="st3" points="62.4,111 63.6,117.6 67.2,138.3 94.1,138.3 98.4,114 98.9,111 			"/>
			<polygon class="st4" points="62.4,111 63.6,117.6 98.4,114 98.9,111 			"/>
			
				<rect x="59.6" y="104.6" transform="matrix(-1 -1.224647e-16 1.224647e-16 -1 161.3214 216.8656)" class="st3" width="42.2" height="7.7"/>
		</g>
	</g>
</g>
</svg>
