<?xml version="1.0" encoding="utf-8"?>
<!-- Generator: Adobe Illustrator 27.9.0, SVG Export Plug-In . SVG Version: 6.00 Build 0)  -->
<svg version="1.1" id="Layer_1" xmlns="http://www.w3.org/2000/svg" xmlns:xlink="http://www.w3.org/1999/xlink" x="0px" y="0px"
	 viewBox="0 0 51.5 80.3" style="enable-background:new 0 0 51.5 80.3;" xml:space="preserve">
<style type="text/css">
	.st0{fill:#FEC23A;}
	.st1{opacity:0.2;fill:#FFFFFF;}
	.st2{opacity:0.1;fill:#010101;}
	.st3{opacity:0.5;fill:#FFFFFF;}
</style>
<g>
	<path class="st0" d="M38,32.9c0,1-0.1,2-0.4,3c-0.4,1.7-1.2,3.3-2.2,4.7c-1.1,1.4-2.4,2.6-4,3.4c-1.8,1-3.9,1.6-6.1,1.6
		c-7,0-12.7-5.7-12.7-12.7c0-5.1,5.2-17.7,9.1-24.2c1.5-2.5,2.8-4.1,3.6-4.1c0.1,0,0.2,0,0.3,0.1c0.4,0.1,0.9,0.6,1.5,1.2
		C31.1,10.6,38,27,38,32.9z"/>
	<path class="st1" d="M35.4,40.6c-1.1,1.4-2.4,2.6-4,3.4c-1.8,1-3.9,1.6-6.1,1.6c-7,0-12.7-5.7-12.7-12.7c0-1.6,0.5-4,1.3-6.6
		c1.8-5.8,5.1-13.1,7.8-17.6c1.5-2.5,2.8-4.1,3.6-4.1c0.1,0,0.2,0,0.3,0.1c-1.4,7-4.6,26.6,3.2,34.4c0.4,0.4,0.9,0.8,1.3,1.1
		C32.4,42,34.1,41.8,35.4,40.6z"/>
	<path class="st1" d="M31.4,44c-1.8,1-3.9,1.6-6.1,1.6c-7,0-12.7-5.7-12.7-12.7c0-5.1,5.2-17.7,9.1-24.2c-2.4,6.4-4.7,15.5-2.8,23.2
		C21.8,43.1,26.6,45.3,31.4,44z"/>
	<path class="st2" d="M38,32.9c0,1-0.1,2-0.4,3c-0.9,0.9-2.2,0.8-4-0.8c-6-5.3-6.6-21.8-6.6-29.2C31.1,10.6,38,27,38,32.9z"/>
	<path class="st1" d="M35.4,40.6c-1.1,1.4-2.4,2.6-4,3.4c-1.8,1-3.9,1.6-6.1,1.6c-7,0-12.7-5.7-12.7-12.7c0-1.6,0.5-4,1.3-6.6
		c1.1,4.1,4.5,13.3,11.3,14.4c1.7,0.3,3.3,0,4.7-0.5C32.4,42,34.1,41.8,35.4,40.6z"/>
	<ellipse transform="matrix(0.9761 -0.2172 0.2172 0.9761 -7.5025 4.6346)" class="st3" cx="17.3" cy="36.5" rx="2.5" ry="4.5"/>
	<path class="st3" d="M19.4,27c-0.4,1.7-1.7,2.9-2.8,2.6c-1.1-0.3-1.7-1.9-1.2-3.6c0.4-1.7,3.5-10.2,4.6-9.9
		C21,16.4,19.8,25.3,19.4,27z"/>
	<path class="st1" d="M31.4,14.1c0,0,10.3,20.8,2.9,26.1C34.4,40.2,38.7,32.6,31.4,14.1z"/>
</g>
</svg>
