<?xml version="1.0" encoding="utf-8"?>
<!-- Generator: Adobe Illustrator 27.7.0, SVG Export Plug-In . SVG Version: 6.00 Build 0)  -->
<svg version="1.1" id="Layer_1" xmlns="http://www.w3.org/2000/svg" xmlns:xlink="http://www.w3.org/1999/xlink" x="0px" y="0px"
	 viewBox="0 0 203.5 199.7" style="enable-background:new 0 0 203.5 199.7;" xml:space="preserve">
<style type="text/css">
	.st0{fill:#010101;}
	.st1{fill:#E1C5AC;}
	.st2{fill:url(#XMLID_00000163048499355616875240000006644699627945271697_);}
	.st3{fill:url(#XMLID_00000121989748110809524860000017443377334632811682_);}
	.st4{fill:#FFFFFF;}
</style>
<g>
	<circle id="XMLID_00000059283548395424963300000004799428003906164913_" class="st0" cx="102.5" cy="101" r="96.8"/>
	<circle id="XMLID_00000124852195193985116890000018072555189708901793_" class="st1" cx="102.5" cy="101" r="93"/>
</g>
<g>
	<circle id="XMLID_00000030448369563393941250000001889172030761034672_" class="st0" cx="102.5" cy="101" r="86.2"/>
	<circle id="XMLID_00000158021351097562986680000008739287830119698620_" class="st0" cx="102.5" cy="101" r="82.9"/>
</g>
<g>
	
		<linearGradient id="XMLID_00000177457542654995180060000013094796547775781787_" gradientUnits="userSpaceOnUse" x1="18.8721" y1="101" x2="186.1279" y2="101">
		<stop  offset="0" style="stop-color:#08512A"/>
		<stop  offset="0.986" style="stop-color:#2D5E38"/>
	</linearGradient>
	
		<circle id="XMLID_00000169555571856852419680000013923754449822481829_" style="fill:url(#XMLID_00000177457542654995180060000013094796547775781787_);" cx="102.5" cy="101" r="83.6"/>
	
		<linearGradient id="XMLID_00000098925516691499959360000000268396307641076366_" gradientUnits="userSpaceOnUse" x1="22.0762" y1="101" x2="182.9238" y2="101">
		<stop  offset="0" style="stop-color:#08512A"/>
		<stop  offset="0.986" style="stop-color:#2D5E38"/>
	</linearGradient>
	
		<circle id="XMLID_00000070094579986601121300000011467214789857576613_" style="fill:url(#XMLID_00000098925516691499959360000000268396307641076366_);" cx="102.5" cy="101" r="80.4"/>
</g>
<g>
	<path class="st4" d="M50,133.5c-1.4,0-2.5-0.9-3.1-2.6c-0.7-1.7-1.1-3.5-1.1-5.6c0-3,0.3-7.8,1.1-14.5l6-58.2H62c2.5,0,3.7,1,4,2.9
		c0.2,1.9,0.1,5.2-0.4,9.9l-5.2,48.5c-0.1,1.6-0.2,3.2-0.2,4.8s0.1,3.2,0.3,4.8l24.6-5.8c0.9-0.1,1.5-0.3,1.9-0.4
		c0.4-0.1,0.7-0.2,1.1-0.2c1,0,1.4,0.5,1.4,1.6c0,1.9-0.3,3.8-1,6c-0.6,2-1.5,3.8-2.7,5.2c-1.2,1.4-2.6,2.1-4.3,2.1H78
		c-5.8,0-10.4,0.1-14,0.3s-6.5,0.4-8.7,0.6C53,133.4,51.3,133.5,50,133.5z"/>
	<path class="st4" d="M94.9,133.5c-1,0-1.5-0.5-1.8-1.6c-0.3-1.1-0.4-2.1-0.4-3.3c0-1.9,0.1-3.7,0.3-5.2c0.2-1.5,0.4-3.2,0.6-5
		l2.9-26.2h5.7c1.1,0,1.8,0.6,2.1,1.8c0.3,1.2,0.5,2.6,0.5,4.1c0,0.7-0.1,1.6-0.2,2.3c-0.1,0.9-0.3,2.1-0.5,3.8l-1.5,13.2
		c-0.3,2.8-0.6,5.2-0.9,7c-0.3,1.9-0.5,3.5-0.6,4.9c-0.2,1.4-0.3,2.7-0.5,4h-5.7V133.5z"/>
	<path class="st4" d="M111,149.9c-0.7,0-1.2-0.2-1.5-0.6c-0.3-0.4-0.5-1.1-0.5-1.8c0-1.2,0.1-2.3,0.2-3.7l6-49.9
		C116,87.5,118,83,121.1,80c3.2-3,7.5-4.5,12.9-4.5c2.5,0,4.3,0.4,5.3,1.2c1.1,0.7,1.6,1.9,1.6,3.5c0,1-0.1,1.8-0.3,2.6
		c-0.2,0.9-0.5,1.5-0.9,2c-0.4,0.5-0.9,0.7-1.4,0.7c-0.4,0-1.1-0.3-1.9-1.1c-0.9-0.6-1.9-1.4-3-2c-1.2-0.6-2.3-1-3.7-1
		c-1.8,0-3,1-3.7,2.8c-0.6,1.8-1.2,4.3-1.5,7.2l-2.7,23.7c-0.4,3.2-0.7,6.4-1,9.7c-0.3,3.3-0.5,6.3-0.9,9.2
		c-0.2,1.4-0.5,2.9-1.3,4.7c-0.6,1.8-1.5,3.5-2.5,5.2c-1,1.7-1.9,3.1-2.9,4.3C112.4,149.4,111.7,149.9,111,149.9z M110.6,99.2
		c-0.4,0-0.6-0.1-0.9-0.4c-0.2-0.3-0.2-0.6-0.1-1l0.5-1.5c0.4-1.1,0.7-1.8,1.2-2.2c0.4-0.4,1.5-0.5,3.2-0.5h19.5
		c0.7,0,1,0.4,0.6,1.3c-0.5,1.5-1.1,2.7-1.7,3.3c-0.6,0.7-1.7,1.1-3.3,1.1L110.6,99.2z"/>
	<path class="st4" d="M144.2,133.5c-4.2,0-7.4-1.3-9.7-4c-2.2-2.7-3.4-6.3-3.4-10.9c0-3.8,0.5-7.4,1.6-10.6c1.1-3.2,2.6-6,4.6-8.4
		c1.9-2.3,4.3-4.3,6.8-5.6c2.7-1.3,5.4-1.9,8.5-1.9c3.7,0,6.5,0.7,8.4,2.3s2.9,3.8,2.9,6.7c0,3-1,5.6-3,7.8c-2,2.2-4.8,4.2-8.5,5.7
		c-3.7,1.6-8.1,2.9-13.4,4l-1.1-4.9c3-0.4,5.8-1.1,8.2-1.9c2.5-1,4.5-2.1,6-3.7c1.5-1.5,2.2-3.4,2.2-5.4c0-1.5-0.3-2.6-0.9-3.3
		c-0.5-0.7-1.6-1.2-3.1-1.2c-2.2,0-4.2,0.9-5.7,2.5c-1.5,1.6-2.7,3.7-3.5,6.3c-0.7,2.6-1.2,5.3-1.2,8.3c0,4,0.6,6.6,1.8,7.9
		c1.2,1.3,3,2,5.4,2c2.5,0,4.7-0.4,6.5-1.2c1.9-0.7,3.5-1.6,4.8-2.5c0.4-0.3,0.9-0.5,1.2-0.6c0.3-0.2,0.6-0.2,0.9-0.2
		c0.3,0,0.5,0.1,0.6,0.3c0.2,0.2,0.2,0.4,0.2,0.7c0,1-0.4,2.1-1.3,3.4c-0.9,1.3-2.1,2.6-3.7,3.8c-1.6,1.3-3.5,2.2-5.7,3.1
		C149.1,133,146.7,133.5,144.2,133.5z"/>
</g>
<path id="XMLID_00000124139674251790083260000011055054302280820615_" class="st4" d="M103.7,73C103.7,72.9,103.7,72.9,103.7,73
	c-0.2-0.1-0.5,0-0.6-0.1c0.3-0.6,0.6-1.4,0.6-2.1c0-0.3-0.4,0.3-0.5,0.2c0-0.1,0.5-1.2,0.6-1.6c0-0.2,0-0.3,0-0.5
	c0,0-0.3,0.2-0.4,0.2c0.2-0.5,0.6-1.2,0.5-1.8c-0.2,0-0.3,0-0.5-0.1c0.3-0.9,0.7-1.5,0.5-2.3h-0.5c0.2-0.7,0.5-1.4,0.4-2.3h-0.9
	c0.3-0.7,0.3-1.6,0.1-2.3c-0.2,0.1-0.4,0.1-0.6,0.2c0.1-0.5,0.2-1.1,0.1-1.6c-0.2,0.1-0.4,0.2-0.6,0.3c-0.1-1.1-0.1-1.5-0.1-1.9
	c-0.1,0-0.4,0-0.5,0l-0.6-3.6c-0.4,1.2-0.7,2.5-1,3.7c-0.1,0-0.2-0.1-0.4-0.1c-0.1,0.7-0.2,1.4-0.3,2c-0.1-0.1-0.3-0.1-0.6-0.2
	c-0.2,0.9-0.2,1.6,0,2.6c-0.3-0.1-0.6-0.2-0.9-0.4c-0.2,0.9,0,1.5,0.3,2.2c-0.3,0-0.5,0-0.9-0.1c-0.1,0.9,0.3,1.6,0.7,2.5h-0.4
	c0,0.9,0.3,1.6,0.7,2.3h-0.4c-0.1,0.6,0.1,1.1,0.3,1.5c0,0.1,0.3,0.9,0.3,1c-1.1-0.6-0.2,0.5,0.1,1.3c0.1,0.4,0.4,0.7,0.6,1.2
	c0,0.1-0.5-0.1-0.5,0.1c0,0.3,1.4,3.4,1.5,3.5v0.2c-0.1-0.1-0.9-1.3-1.1-1.6c-0.1-0.2,0,0.1-0.2,0.2c0-0.1-0.1-0.2-0.1-0.2
	c-0.2-0.4-0.4-0.9-0.6-1.3c-0.1-0.1-0.3-0.2-0.4-0.2c-0.2-0.3-0.3-0.6-0.5-1c-0.4-0.5-0.2-0.3-0.5-0.3c0,0-0.1-0.1-0.2-0.2
	c-0.2-0.4-0.4-0.7-0.9-1c-0.1,0.1-0.1,0.2-0.2,0.3c-0.3-0.6-0.6-1.3-1.3-1.7c-0.1,0.1-0.2,0.3-0.2,0.4c-0.2-0.6-0.6-1.3-1.2-1.6
	c-0.1,0.2-0.2,0.4-0.3,0.6c-0.3-0.5-0.7-1.1-1.3-1.3c0,0.3-0.1,0.5-0.1,0.9c-0.4-0.6-1-1-1.6-1.2c0,0.2-0.1,0.4-0.1,0.5
	c-0.5-0.2-1-0.4-1.5-0.7c-0.1,0.2-0.1,0.3-0.1,0.4c-1-0.4-1.9-0.7-2.9-1l2.1,2.1c-0.1,0-0.2,0.3-0.2,0.3c0.2,0.2,0.5,0.4,1.2,1
	c-0.2,0.1-0.3,0.2-0.5,0.4c0.3,0.3,0.6,0.5,1.1,0.6c-0.1,0.1-0.2,0.2-0.4,0.4c0.4,0.5,1,1,1.6,1c-0.1,0.2-0.2,0.4-0.4,0.6
	c0.5,0.4,1.1,0.5,1.7,0.7c-0.1,0.1-0.1,0.2-0.2,0.4c0.4,0.5,1.2,0.5,1.8,0.6c-0.1,0.1-0.1,0.3-0.2,0.4c0.3,0.4,0.9,0.3,1.2,0.3
	c0,0-0.1,0.1-0.1,0.2c0.1,0.1,0.3,0.2,0.4,0.2c0.3,0.1,0.7,0.2,1.1,0.3c0.1,0,0.1,0,0.2,0.1c0,0.1-0.1,0.2-0.1,0.4
	c0.5,0.3,1.1,0.4,1.7,0.4c0,0.1-0.1,0.2-0.1,0.3c0.4,0.1,1.7,0.7,1.7,0.7c-0.3-0.2-0.7-0.3-1.1-0.3c0,0.1,0,0.2,0,0.2h-0.1
	c-0.2-0.1-0.4-0.1-0.7-0.2c-0.1,0-0.2,0-0.3,0v0.1c-0.2-0.1-0.5-0.3-0.9-0.2c0,0.1,0,0.2,0,0.3c-0.4-0.1-0.7-0.3-1.2-0.2
	c0,0.1,0,0.2,0,0.3c-0.4-0.1-0.7-0.2-1.2-0.1c0,0.2,0,0.3,0,0.5c-0.4-0.2-0.9-0.1-1.2,0c0,0.1,0.1,0.2,0.1,0.3
	c-0.3-0.1-0.5-0.1-0.7,0c0.1,0.1,0.1,0.2,0.2,0.4c-0.5,0.1-0.7,0.1-1,0.2c0,0.1,0,0.2,0,0.3L88.1,81c0.6,0.2,1.3,0.3,1.9,0.4
	c0,0.1,0,0.1,0,0.3c0.3,0,0.7,0.1,1.1,0.1c0,0.1-0.1,0.2-0.1,0.3c0.4,0.1,0.9,0.1,1.3-0.1c-0.1,0.2-0.1,0.3-0.2,0.5
	c0.4,0.1,0.7-0.1,1.2-0.3c0,0.2,0,0.3,0,0.5c0.4,0,0.9-0.2,1.2-0.5c0,0.1,0,0.2,0,0.3c0.4,0,0.9-0.3,1.2-0.5c0,0.1,0,0.1,0,0.2
	c0.3,0,0.5-0.1,0.7-0.2c0,0,0.1-0.1,0.1,0c0.1,0.1,0,0.2,0.3,0c0.2-0.1,0.4-0.2,0.6-0.3c0.1,0,0.2,0.1,0.3,0c0.2-0.1,2-1.1,2-1.1
	c-0.2,0.1-1.2,0.9-1.3,1l0.1,0.1c-0.2,0-0.4,0.1-0.5,0.2c0.1,0.1,0.1,0.1,0.2,0.1c-0.2,0.1-0.3,0.1-0.4,0.3c0.1,0,0.1,0.1,0.2,0.1
	c-0.2,0.1-0.3,0.2-0.4,0.4c0.1,0,0.1,0.1,0.1,0.1c-0.1,0.1-0.2,0.3-0.3,0.4c0,0,0.1,0,0.1,0.1c-0.2,0.3-0.3,0.5-0.5,0.9l0.7-0.5
	l0.1,0.1c0.1-0.1,0.2-0.1,0.3-0.3c0,0.1,0,0.1,0.1,0.2c0.1-0.1,0.2-0.2,0.2-0.3c0,0,0,0.1,0.1,0.1c0.2-0.1,0.3-0.2,0.4-0.4
	c0.1,0.1,0.1,0.1,0.1,0.2c0.2-0.1,0.2-0.3,0.3-0.5l0.1,0.1c0.2-0.1,0.2-0.3,0.3-0.5l0.1,0.1c0.1-0.1,0.1-0.2,0.2-0.3l0,0
	c0.1,0,0.1-0.1,0.1-0.1c0-0.1,0.1-0.1,0.1-0.2v-0.1c0,0,0.1,0,0.1,0.1c0.1-0.1,0.2-0.3,0.2-0.5c0,0,0,0,0.1,0.1
	c0.1-0.1,0.1-0.3,0.2-0.4c0,0,0,0,0.1,0c0-0.1,0.1-0.2,0.1-0.2c0-0.1,0,0,0.1-0.1l0,0c0.1,1.4,0.1,3.2-0.1,4.4c0,0,0.3-0.4,0.5-1
	c0.1-0.3,0.1-1.8,0.1-3.1l0,0c0.1,0.1,0.1,0.3,0.2,0.4c0,0,0.1,0,0.1-0.1c0.1,0.2,0.1,0.3,0.2,0.5c0,0,0.1,0,0.1-0.1
	c0,0.1,0.1,0.1,0.1,0.2s0,0.1,0.1,0.1c0,0,0.1,0.1,0.1,0.2l0,0c0,0.1,0.1,0.3,0.2,0.3l0.1-0.1c0.1,0.2,0.1,0.4,0.3,0.5l0.1-0.1
	c0.1,0.2,0.1,0.3,0.3,0.5c0-0.1,0.1-0.1,0.1-0.2c0.1,0.2,0.2,0.3,0.4,0.4c0-0.1,0-0.1,0.1-0.1c0.1,0.1,0.1,0.2,0.2,0.3
	c0-0.1,0-0.1,0.1-0.2c0.2,0.2,0.3,0.2,0.3,0.3l0.1-0.1l0.7,0.5c-0.1-0.3-0.3-0.5-0.5-0.9c0,0,0.1,0,0.1-0.1
	c-0.1-0.1-0.2-0.3-0.3-0.4c0,0,0.1,0,0.1-0.1c-0.1-0.2-0.2-0.3-0.4-0.4c0.1,0,0.1-0.1,0.2-0.1c-0.1-0.2-0.3-0.2-0.4-0.3
	c0.1-0.1,0.1-0.1,0.2-0.1c-0.1-0.2-0.3-0.2-0.5-0.2l0.1-0.1c-0.1-0.2-0.3-0.2-0.5-0.3c0,0,0-0.1,0.1-0.1c-0.1-0.1-0.2-0.2-0.3-0.2
	h-0.1c0-0.1,0.1-0.1-0.1-0.1c-0.1,0-0.2-0.2-0.1-0.2s0-0.1,0.1,0c0.1,0.1,0.2,0.2,0.4,0.3c0.1,0,0-0.1,0.1-0.1
	c0.2,0.1,0.4,0.3,0.7,0.5c0-0.1,0.1-0.1,0.1-0.2c0.3,0.2,0.5,0.4,1,0.6c0-0.1,0.1-0.1,0.1-0.2c0,0,0.1,0,0.1,0.1
	c0.2,0.1,0.4,0.2,0.6,0.3c0.1,0,0.2,0.1,0.2,0.1v-0.1c0.2,0.1,0.4,0.4,0.6,0.4c0-0.1,0-0.2,0.1-0.3c0.3,0.2,0.6,0.5,1.1,0.5
	c0-0.1,0-0.2,0.1-0.3c0.3,0.2,0.6,0.4,1,0.4c0-0.2,0.1-0.3,0.1-0.4c0.3,0.2,0.7,0.3,1.1,0.3c0-0.1,0-0.2,0-0.3
	c0.2,0.1,0.4,0.2,0.7,0.2c0-0.1,0-0.2-0.1-0.4c0.5,0.1,0.6,0.1,0.9,0.1c0-0.1,0-0.2,0-0.3h1.7c-0.5-0.3-1.1-0.6-1.6-0.9
	c0-0.1,0.1-0.1,0.1-0.2c-0.3-0.1-0.6-0.2-1-0.3c0-0.1,0.1-0.2,0.2-0.3c-0.3-0.2-0.7-0.3-1.2-0.2c0.1-0.1,0.2-0.3,0.3-0.4
	c-0.3-0.2-0.7-0.1-1.1,0c0-0.1,0.1-0.3,0.1-0.4c-0.4-0.1-0.9,0-1.2,0.2c0-0.1,0-0.2,0.1-0.3c-0.4-0.1-0.9,0-1.2,0.2
	c0-0.1,0-0.1,0-0.2c-0.2-0.1-0.5,0-0.7,0h-0.1c-0.1-0.1,0-0.2-0.3-0.1c-0.2,0-0.4,0.1-0.6,0.2c-0.1-0.1-0.2-0.1-0.2-0.1
	c-0.2,0.1-0.5,0.1-0.7,0.2c0,0-0.1,0-0.1,0.1c0-0.1,0-0.2-0.1-0.2s-0.3,0.1-0.3,0.1c0.1,0,0.1-0.1,0.2-0.1c0.2-0.1,0.5-0.1,0.7-0.2
	c0.1-0.1-0.1-0.2,0-0.2c0.4-0.1,0.9-0.2,1.4-0.4c-0.1-0.1-0.1-0.2-0.2-0.3c0.6-0.1,1.2-0.2,1.7-0.5c-0.1-0.1-0.1-0.2-0.1-0.3
	c0.1,0,0.1-0.1,0.2-0.1c0.3-0.1,0.7-0.2,1.1-0.4c0.1-0.1,0.3-0.1,0.4-0.2c0,0-0.1-0.1-0.1-0.2c0.4-0.1,0.9-0.1,1.2-0.4
	c-0.1-0.1-0.2-0.3-0.2-0.4c0.6-0.2,1.3-0.2,1.7-0.7c-0.1-0.2-0.2-0.3-0.3-0.4c0.5-0.2,1.2-0.3,1.6-0.9c-0.1-0.2-0.3-0.4-0.4-0.6
	c0.6-0.1,1.2-0.5,1.5-1.1c-0.1-0.1-0.3-0.2-0.4-0.3c0.4-0.2,0.7-0.3,1-0.7c-0.2-0.1-0.3-0.2-0.5-0.3c0.6-0.5,0.9-0.9,1.1-1.1
	c-0.1,0-0.2-0.3-0.3-0.3l1.9-2.3c-1,0.3-1.9,0.7-2.8,1.2c0-0.1-0.1-0.2-0.1-0.4c-0.5,0.3-1,0.5-1.4,0.9c0-0.1-0.1-0.3-0.1-0.5
	c-0.6,0.2-1.2,0.6-1.5,1.3c-0.1-0.3-0.1-0.5-0.2-0.9c-0.6,0.2-1,0.9-1.3,1.4c-0.1-0.2-0.2-0.4-0.4-0.6c-0.6,0.4-0.9,1.1-1.1,1.7
	c-0.1-0.2-0.2-0.3-0.3-0.4c-0.5,0.4-0.9,1.1-1.2,1.8c-0.1-0.1-0.1-0.2-0.2-0.3c-0.4,0.2-0.6,0.6-0.7,1c0,0.1-0.1,0.2-0.2,0.2
	c-0.3-0.3-0.1-0.2-0.4,0.3c-0.2,0.3-0.3,0.6-0.5,1.1c-0.2,0-0.1-0.5-0.2-0.4c-0.2,0.4-0.6,1.5-0.9,1.9c0,0.1,0,0.1-0.1,0.2
	c0-0.7-0.2,0-0.3,0.2c-0.1,0.3-0.5,1.3-0.5,1.4"/>
</svg>
